<?xml version="1.0" encoding="UTF-8" standalone="no"?>
<svg
   version="1.1"
   width="230"
   height="105"
   id="svg185"
   sodipodi:docname="logoj_petit.svg"
   inkscape:version="1.4 (86a8ad7, 2024-10-11)"
   xmlns:inkscape="http://www.inkscape.org/namespaces/inkscape"
   xmlns:sodipodi="http://sodipodi.sourceforge.net/DTD/sodipodi-0.dtd"
   xmlns:xlink="http://www.w3.org/1999/xlink"
   xmlns="http://www.w3.org/2000/svg"
   xmlns:svg="http://www.w3.org/2000/svg">
  <defs
     id="defs185">
    <linearGradient
       id="swatch55"
       inkscape:swatch="solid">
      <stop
         style="stop-color:#000000;stop-opacity:1;"
         offset="0"
         id="stop55" />
    </linearGradient>
    <linearGradient
       id="swatch54"
       inkscape:swatch="solid">
      <stop
         style="stop-color:#000000;stop-opacity:1;"
         offset="0"
         id="stop54" />
    </linearGradient>
    <linearGradient
       id="swatch9"
       inkscape:swatch="solid">
      <stop
         style="stop-color:#000000;stop-opacity:1;"
         offset="0"
         id="stop9" />
    </linearGradient>
    <linearGradient
       inkscape:collect="always"
       xlink:href="#swatch9"
       id="linearGradient9"
       x1="137.55312"
       y1="178.79317"
       x2="200.99434"
       y2="178.79317"
       gradientUnits="userSpaceOnUse" />
    <linearGradient
       inkscape:collect="always"
       xlink:href="#swatch9"
       id="linearGradient10"
       x1="137.37265"
       y1="131.30862"
       x2="180.70746"
       y2="131.30862"
       gradientUnits="userSpaceOnUse" />
    <linearGradient
       inkscape:collect="always"
       xlink:href="#swatch9"
       id="linearGradient11"
       x1="148.9015"
       y1="194.31952"
       x2="174.8848"
       y2="194.31952"
       gradientUnits="userSpaceOnUse" />
    <linearGradient
       inkscape:collect="always"
       xlink:href="#swatch9"
       id="linearGradient12"
       x1="147.49525"
       y1="149.29436"
       x2="171.97711"
       y2="149.29436"
       gradientUnits="userSpaceOnUse" />
    <linearGradient
       inkscape:collect="always"
       xlink:href="#swatch9"
       id="linearGradient13"
       x1="162.12051"
       y1="149.81937"
       x2="199.08315"
       y2="149.81937"
       gradientUnits="userSpaceOnUse" />
    <linearGradient
       inkscape:collect="always"
       xlink:href="#swatch9"
       id="linearGradient14"
       x1="191.00871"
       y1="149.71463"
       x2="193.22528"
       y2="149.71463"
       gradientUnits="userSpaceOnUse" />
    <linearGradient
       inkscape:collect="always"
       xlink:href="#swatch9"
       id="linearGradient15"
       x1="175.13161"
       y1="131.01337"
       x2="180.75999"
       y2="131.01337"
       gradientUnits="userSpaceOnUse" />
    <linearGradient
       inkscape:collect="always"
       xlink:href="#swatch9"
       id="linearGradient16"
       x1="192.12518"
       y1="148.03897"
       x2="193.19366"
       y2="148.03897"
       gradientUnits="userSpaceOnUse" />
    <linearGradient
       inkscape:collect="always"
       xlink:href="#swatch9"
       id="linearGradient17"
       x1="152.31281"
       y1="188.46735"
       x2="167.23518"
       y2="188.46735"
       gradientUnits="userSpaceOnUse" />
    <linearGradient
       inkscape:collect="always"
       xlink:href="#swatch9"
       id="linearGradient18"
       x1="153.15434"
       y1="178.86807"
       x2="164.93507"
       y2="178.86807"
       gradientUnits="userSpaceOnUse" />
    <linearGradient
       inkscape:collect="always"
       xlink:href="#swatch9"
       id="linearGradient19"
       x1="152.69756"
       y1="197.67036"
       x2="169.5834"
       y2="197.67036"
       gradientUnits="userSpaceOnUse" />
    <linearGradient
       inkscape:collect="always"
       xlink:href="#swatch9"
       id="linearGradient20"
       x1="153.60262"
       y1="207.58632"
       x2="170.16122"
       y2="207.58632"
       gradientUnits="userSpaceOnUse" />
    <linearGradient
       inkscape:collect="always"
       xlink:href="#swatch9"
       id="linearGradient21"
       x1="122.87458"
       y1="149.23099"
       x2="158.94743"
       y2="149.23099"
       gradientUnits="userSpaceOnUse" />
    <linearGradient
       inkscape:collect="always"
       xlink:href="#swatch9"
       id="linearGradient22"
       x1="158.06438"
       y1="214.99303"
       x2="170.3688"
       y2="214.99303"
       gradientUnits="userSpaceOnUse" />
    <linearGradient
       inkscape:collect="always"
       xlink:href="#swatch9"
       id="linearGradient23"
       x1="155.13602"
       y1="169.15968"
       x2="161.91"
       y2="169.15968"
       gradientUnits="userSpaceOnUse" />
    <linearGradient
       inkscape:collect="always"
       xlink:href="#swatch9"
       id="linearGradient24"
       x1="152.98647"
       y1="169.79991"
       x2="161.91794"
       y2="169.79991"
       gradientUnits="userSpaceOnUse" />
    <linearGradient
       inkscape:collect="always"
       xlink:href="#swatch9"
       id="linearGradient25"
       x1="151.54195"
       y1="178.60049"
       x2="165.28624"
       y2="178.60049"
       gradientUnits="userSpaceOnUse" />
    <linearGradient
       inkscape:collect="always"
       xlink:href="#swatch9"
       id="linearGradient26"
       x1="150.82335"
       y1="187.82562"
       x2="168.36731"
       y2="187.82562"
       gradientUnits="userSpaceOnUse" />
    <linearGradient
       inkscape:collect="always"
       xlink:href="#swatch9"
       id="linearGradient27"
       x1="150.46001"
       y1="197.51619"
       x2="169.34203"
       y2="197.51619"
       gradientUnits="userSpaceOnUse" />
    <linearGradient
       inkscape:collect="always"
       xlink:href="#swatch9"
       id="linearGradient28"
       x1="151.01251"
       y1="207.12364"
       x2="169.89453"
       y2="207.12364"
       gradientUnits="userSpaceOnUse" />
    <linearGradient
       inkscape:collect="always"
       xlink:href="#swatch9"
       id="linearGradient29"
       x1="155.47122"
       y1="214.66893"
       x2="170.65092"
       y2="214.66893"
       gradientUnits="userSpaceOnUse" />
    <linearGradient
       inkscape:collect="always"
       xlink:href="#swatch9"
       id="linearGradient30"
       x1="161.86505"
       y1="165.33961"
       x2="165.17403"
       y2="165.33961"
       gradientUnits="userSpaceOnUse" />
    <linearGradient
       inkscape:collect="always"
       xlink:href="#swatch9"
       id="linearGradient31"
       x1="164.3873"
       y1="171.83514"
       x2="166.90952"
       y2="171.83514"
       gradientUnits="userSpaceOnUse" />
    <linearGradient
       inkscape:collect="always"
       xlink:href="#swatch9"
       id="linearGradient32"
       x1="166.93263"
       y1="180.61729"
       x2="169.03836"
       y2="180.61729"
       gradientUnits="userSpaceOnUse" />
    <linearGradient
       inkscape:collect="always"
       xlink:href="#swatch9"
       id="linearGradient33"
       x1="168.4061"
       y1="198.15938"
       x2="171.69193"
       y2="198.15938"
       gradientUnits="userSpaceOnUse" />
    <linearGradient
       inkscape:collect="always"
       xlink:href="#swatch9"
       id="linearGradient34"
       x1="170.07539"
       y1="209.60025"
       x2="172.66075"
       y2="209.60025"
       gradientUnits="userSpaceOnUse" />
    <linearGradient
       inkscape:collect="always"
       xlink:href="#swatch9"
       id="linearGradient35"
       x1="183.59326"
       y1="150.69128"
       x2="196.18127"
       y2="150.69128"
       gradientUnits="userSpaceOnUse" />
    <linearGradient
       inkscape:collect="always"
       xlink:href="#swatch9"
       id="linearGradient36"
       x1="141.76817"
       y1="134.1351"
       x2="155.52475"
       y2="134.1351"
       gradientUnits="userSpaceOnUse" />
    <linearGradient
       inkscape:collect="always"
       xlink:href="#swatch9"
       id="linearGradient37"
       x1="150.39616"
       y1="146.87204"
       x2="163.89751"
       y2="146.87204"
       gradientUnits="userSpaceOnUse" />
    <linearGradient
       inkscape:collect="always"
       xlink:href="#swatch9"
       id="linearGradient38"
       x1="154.4115"
       y1="149.63055"
       x2="168.38487"
       y2="149.63055"
       gradientUnits="userSpaceOnUse" />
    <linearGradient
       inkscape:collect="always"
       xlink:href="#swatch9"
       id="linearGradient39"
       x1="153.08301"
       y1="150.60626"
       x2="165.64922"
       y2="150.60626"
       gradientUnits="userSpaceOnUse" />
    <linearGradient
       inkscape:collect="always"
       xlink:href="#swatch9"
       id="linearGradient40"
       x1="126.11414"
       y1="149.44957"
       x2="149.439"
       y2="149.44957"
       gradientUnits="userSpaceOnUse" />
    <linearGradient
       inkscape:collect="always"
       xlink:href="#swatch9"
       id="linearGradient41"
       x1="171.00523"
       y1="148.82243"
       x2="195.07057"
       y2="148.82243"
       gradientUnits="userSpaceOnUse" />
    <linearGradient
       inkscape:collect="always"
       xlink:href="#swatch9"
       id="linearGradient42"
       x1="169.19073"
       y1="187.63005"
       x2="171.15421"
       y2="187.63005"
       gradientUnits="userSpaceOnUse" />
    <linearGradient
       inkscape:collect="always"
       xlink:href="#swatch9"
       id="linearGradient43"
       x1="151.08192"
       y1="153.511"
       x2="154.09009"
       y2="153.511"
       gradientUnits="userSpaceOnUse" />
    <linearGradient
       inkscape:collect="always"
       xlink:href="#swatch9"
       id="linearGradient44"
       x1="135.60144"
       y1="154.64925"
       x2="149.39272"
       y2="154.64925"
       gradientUnits="userSpaceOnUse" />
    <linearGradient
       inkscape:collect="always"
       xlink:href="#swatch9"
       id="linearGradient45"
       x1="171.00523"
       y1="143.47382"
       x2="177.2067"
       y2="143.47382"
       gradientUnits="userSpaceOnUse" />
    <linearGradient
       inkscape:collect="always"
       xlink:href="#swatch9"
       id="linearGradient46"
       x1="153.01408"
       y1="170.20946"
       x2="165.40541"
       y2="170.20946"
       gradientUnits="userSpaceOnUse" />
    <linearGradient
       inkscape:collect="always"
       xlink:href="#swatch9"
       id="linearGradient47"
       x1="151.53316"
       y1="181.56596"
       x2="166.93263"
       y2="181.56596"
       gradientUnits="userSpaceOnUse" />
    <linearGradient
       inkscape:collect="always"
       xlink:href="#swatch9"
       id="linearGradient48"
       x1="150.79266"
       y1="190.80766"
       x2="169.01521"
       y2="190.80766"
       gradientUnits="userSpaceOnUse" />
    <linearGradient
       inkscape:collect="always"
       xlink:href="#swatch9"
       id="linearGradient49"
       x1="150.52657"
       y1="200.26926"
       x2="170.82011"
       y2="200.26926"
       gradientUnits="userSpaceOnUse" />
    <linearGradient
       inkscape:collect="always"
       xlink:href="#swatch9"
       id="linearGradient50"
       x1="154.70329"
       y1="208.99358"
       x2="171.72256"
       y2="208.99358"
       gradientUnits="userSpaceOnUse" />
    <linearGradient
       inkscape:collect="always"
       xlink:href="#swatch9"
       id="linearGradient51"
       x1="160.43037"
       y1="219.11485"
       x2="172.6713"
       y2="219.11485"
       gradientUnits="userSpaceOnUse" />
    <linearGradient
       inkscape:collect="always"
       xlink:href="#swatch9"
       id="linearGradient52"
       x1="153.74474"
       y1="160.33604"
       x2="167.32542"
       y2="160.33604"
       gradientUnits="userSpaceOnUse" />
    <linearGradient
       inkscape:collect="always"
       xlink:href="#swatch9"
       id="linearGradient53"
       x1="145.45897"
       y1="135.32507"
       x2="172.85641"
       y2="135.32507"
       gradientUnits="userSpaceOnUse" />
    <linearGradient
       inkscape:collect="always"
       xlink:href="#swatch55"
       id="linearGradient1"
       gradientUnits="userSpaceOnUse"
       x1="-218.23145"
       y1="155.00549"
       x2="18.982323"
       y2="155.00549"
       gradientTransform="matrix(0.29977518,0,0,0.33513303,110.28656,118.04457)" />
    <linearGradient
       inkscape:collect="always"
       xlink:href="#swatch55"
       id="linearGradient2"
       gradientUnits="userSpaceOnUse"
       x1="-218.23145"
       y1="155.00549"
       x2="18.982323"
       y2="155.00549"
       gradientTransform="matrix(0.29977518,0,0,0.33513303,110.28656,118.04457)" />
    <linearGradient
       inkscape:collect="always"
       xlink:href="#swatch54"
       id="linearGradient3"
       gradientUnits="userSpaceOnUse"
       x1="318.01785"
       y1="145.57812"
       x2="540.28986"
       y2="145.57812"
       gradientTransform="matrix(0.29977518,0,0,0.33513303,110.28656,118.04457)" />
    <linearGradient
       inkscape:collect="always"
       xlink:href="#swatch54"
       id="linearGradient4"
       gradientUnits="userSpaceOnUse"
       x1="318.01785"
       y1="145.57812"
       x2="540.28986"
       y2="145.57812" />
    <linearGradient
       inkscape:collect="always"
       xlink:href="#swatch54"
       id="linearGradient5"
       gradientUnits="userSpaceOnUse"
       x1="318.01785"
       y1="145.57812"
       x2="540.28986"
       y2="145.57812" />
  </defs>
  <sodipodi:namedview
     id="namedview185"
     pagecolor="#505050"
     bordercolor="#eeeeee"
     borderopacity="1"
     inkscape:showpageshadow="0"
     inkscape:pageopacity="0"
     inkscape:pagecheckerboard="0"
     inkscape:deskcolor="#505050"
     showgrid="false"
     inkscape:zoom="2.2901408"
     inkscape:cx="86.675893"
     inkscape:cy="40.827184"
     inkscape:window-width="1920"
     inkscape:window-height="1094"
     inkscape:window-x="-11"
     inkscape:window-y="-11"
     inkscape:window-maximized="1"
     inkscape:current-layer="svg185" />
  <g
     id="g2"
     transform="translate(-30.907158,1.5438063)">
    <g
       id="g5"
       transform="translate(-11.941063,-123.16692)">
      <path
         style="fill:#333333;fill-opacity:1;stroke:url(#linearGradient1);stroke-width:0.476384"
         d="m 114.82467,151.18427 -11.17392,-15.24179 -18.804897,-3.81045 -20.712638,6.66828 -8.176038,16.82947 1.090138,24.45038 1.635208,15.87687 13.626734,19.36978 8.721108,-1.27015 16.079552,-3.49291 14.989403,-11.43135 v -19.05224 l -9.26618,-1.58768 -3.81548,13.01903 -11.446457,10.79627 -13.626736,-6.03321 -7.358434,-25.08545 3.270412,-20.32239 9.538714,-6.35075 h 16.624619 l 4.360552,6.03321 3.27042,9.20858 10.35632,-0.31753 z"
         id="path313" />
      <path
         style="fill:#f9f9f9;fill-opacity:1;stroke:url(#linearGradient2);stroke-width:2.412;stroke-dasharray:none;stroke-opacity:1"
         d="m 115.12255,144.3397 -13.1793,-15.00892 -22.179781,-3.75223 -24.429914,6.5664 -9.643381,16.57234 1.285784,24.07681 1.928678,15.63429 16.072311,19.07382 10.286273,-1.25074 18.965327,-3.43954 17.679533,-11.25669 V 172.7941 l -10.92917,-1.56343 -4.500241,12.82011 -13.50074,10.63132 -16.072309,-5.94103 -8.679046,-24.70217 3.857357,-20.01189 11.250614,-6.25372 h 19.608216 l 5.143139,5.94103 3.85735,9.06789 12.21496,-0.31269 z"
         id="path313-9" />
    </g>
    <g
       id="g6"
       transform="translate(-13.306207,-121.76698)">
      <path
         style="fill:#333333;fill-opacity:1;stroke:url(#linearGradient3);stroke-width:0.524273"
         d="m 267.5416,136.13022 -12.78807,-8.09794 -15.81682,-3.1146 -15.81683,1.5573 -10.43237,3.42605 -2.3557,4.98336 -4.71139,13.39276 3.02875,12.14692 7.06709,3.42605 13.96592,5.60627 23.72524,-0.93438 9.08626,6.54065 1.34611,8.72087 v 7.78649 l -2.01917,0.62292 -7.06709,5.91773 -13.79766,0.31146 h -15.81681 l -13.46113,-0.62292 -0.33653,11.83546 13.46112,-0.31146 h 18.84558 l 21.68727,-7.44836 6.91668,-13.52426 -1.27184,-11.40038 -6.05705,-6.94604 -13.10751,-10.73407 -21.88107,-0.94839 -9.16281,-11.96376 5.04034,-8.20324 16.48988,-2.33594 11.77848,5.91773 10.09585,4.67188 z"
         id="path314"
         sodipodi:nodetypes="cccccccccccccccccccccccccccccccccc" />
      <g
         id="g317"
         style="stroke:url(#linearGradient5);stroke-width:7.62553;stroke-dasharray:none"
         transform="matrix(0.29977518,0,0,0.33513303,110.28656,118.04457)">
        <path
           style="fill:#f9f9f9;fill-opacity:1;stroke:url(#linearGradient4);stroke-width:7.62553;stroke-dasharray:none;stroke-opacity:1"
           d="m 499.81401,50.46901 -35.07955,-21.38384 -43.38788,-8.224563 -43.38788,4.112275 -28.61755,9.047015 -6.46202,13.15929 -12.92405,35.36559 8.30832,32.075793 19.38607,9.04701 38.31058,14.80418 65.08182,-2.46737 24.92496,17.27158 3.69259,23.02876 v 20.56139 l -5.53889,1.64491 -19.38607,15.62666 -37.84901,0.82247 h -43.38787 l -36.92587,-1.64492 -0.92314,31.25331 36.92585,-0.82245 h 51.6962 l 60.92767,-5.7572 30.46382,-41.12278 3.69259,-37.83296 -23.07866,-22.2063 -34.51957,-29.89064 -75.10405,2.13275 -25.13494,-31.592108 13.82639,-21.661895 45.23416,-6.16841 32.31013,15.626661 27.6944,12.336824 z"
           id="path314-4"
           sodipodi:nodetypes="cccccccccccccccccccccccccccccccccc" />
      </g>
    </g>
    <g
       id="g1"
       transform="translate(-14.51178,-126.28336)">
      <path
         style="fill:#333333;fill-opacity:1;stroke:url(#linearGradient9);stroke-width:0.117;stroke-dasharray:none"
         d="m 137.55312,163.51523 9.60752,0.24245 8.2947,-11.35905 1.86207,68.54887 8.12048,8.24664 7.32597,-6.3577 4.68473,-8.00635 -4.56971,-43.20318 -2.19125,-14.05195 8.14133,-4.57375 8.83689,13.01824 9.1064,-3.88009 3.85186,-0.22092 0.37023,-15.72837 -8.14518,-17.79789 -27.02722,16.14227 -26.65698,-1.65562 z"
         id="path315"
         sodipodi:nodetypes="cccccccccccccccccc" />
      <path
         d="m 158.55455,127.11351 c 3.54112,-0.21373 6.81453,0.3583 10.26876,1.1944 0.78027,0.18625 1.56188,0.36017 2.34521,0.52953 3.19952,0.69253 6.37267,1.47869 9.53894,2.3407 -0.95682,1.22894 -1.89902,1.7572 -3.24132,2.36688 -0.53153,0.2443 -0.53153,0.2443 -1.0738,0.49353 l -1.08083,0.49092 c -0.3474,0.18619 -0.6948,0.37239 -1.05273,0.56423 -1.9168,0.80868 -3.54757,0.40851 -5.46738,-0.18721 -3.10719,-0.94545 -6.06383,-1.49489 -9.29303,-1.4662 -0.29639,-0.003 -0.59278,-0.005 -0.89815,-0.008 -1.64673,0.005 -2.99331,0.19842 -4.57275,0.76191 -0.94506,0.20591 -1.89568,0.36472 -2.84786,0.52364 l -0.74124,0.12764 c -0.47922,0.0821 -0.95869,0.16242 -1.43843,0.24071 -0.60635,0.10291 -1.21015,0.2243 -1.81343,0.34774 -0.99419,0.10513 -1.39841,0.0264 -2.26471,-0.48569 -0.92202,-0.51275 -1.80566,-0.92328 -2.79165,-1.25674 -1.19881,-0.42793 -3.06623,-0.36494 -4.06331,-1.22238 l -0.69419,-1.68032 c 1.59619,-0.45894 4.8618,-0.1773 6.46247,-0.6162 0.33914,-0.0934 0.67828,-0.18674 1.02769,-0.28293 4.54576,-1.24394 9.0062,-2.45622 13.69174,-2.77631 z"
         fill="#f4f5f5"
         id="path7"
         style="fill:#ececec;stroke:url(#linearGradient10);stroke-width:0.117;stroke-dasharray:none"
         sodipodi:nodetypes="scccccccccccccccccccccss" />
      <path
         style="fill:#1a1a1a;fill-opacity:1;stroke:url(#linearGradient11);stroke-width:0.117;stroke-dasharray:none"
         d="m 153.94109,161.28724 -3.79605,17.92632 -1.24353,21.65792 0.1309,14.7069 4.58144,7.02419 6.87215,5.78032 4.90868,-2.5609 9.49011,-11.48748 -0.32724,-13.09718 -2.35617,-16.97513 -5.59425,-24.00604 z"
         id="path304"
         sodipodi:nodetypes="cccccccccccc" />
      <path
         style="fill:#1a1a1a;fill-opacity:1;stroke:url(#linearGradient12);stroke-width:0.117;stroke-dasharray:none"
         d="m 153.78927,159.74544 13.51361,-0.41391 4.67423,-9.46806 -5.04446,-9.36459 -7.49728,-1.65561 -7.03448,2.06952 -4.90563,9.00242 1.48095,5.69118 z"
         id="path305"
         sodipodi:nodetypes="ccccccccc" />
      <path
         style="fill:#1a1a1a;fill-opacity:1;stroke:url(#linearGradient13);stroke-width:0.117;stroke-dasharray:none"
         d="m 193.27598,128.58086 -7.07301,0.76159 -2.18514,-1.47857 -21.89731,-0.7072 18.39259,4.09006 -11.84598,6.11435 -1.83257,3.21942 14.19916,25.98591 5.17376,5.91562 2.35617,-1.75604 9.9773,-24.42793 0.54219,-3.43804 z"
         id="path307"
         sodipodi:nodetypes="ccccccccccccc" />
      <path
         d="m 193.02451,146.19574 c 0.28951,1.1369 0.27243,1.70843 -0.0937,2.82768 -0.0838,0.26267 -0.16771,0.52533 -0.25411,0.79595 -0.19822,0.57721 -0.40993,1.14863 -0.62648,1.71755 -0.11129,0.34215 -0.11129,0.34215 -0.22483,0.69121 0.0989,0.22119 0.19785,0.44238 0.29977,0.67027 -0.29677,0.11059 -0.59355,0.22119 -0.89932,0.33513 -0.33234,-1.09845 -0.2786,-1.65994 0.12998,-2.71772 0.0956,-0.25272 0.19128,-0.50544 0.28982,-0.76583 0.1539,-0.39075 0.1539,-0.39075 0.3109,-0.78939 0.10144,-0.26569 0.20288,-0.53137 0.30739,-0.80511 0.25048,-0.65471 0.50512,-1.30743 0.76056,-1.95974 z"
         fill="#a8a9a6"
         id="path95"
         style="stroke:url(#linearGradient14);stroke-width:0.117;stroke-dasharray:none" />
      <path
         d="m 175.13161,129.8651 c 1.53935,0.21511 4.12782,0.82262 5.62839,1.26409 l -1.80282,1.03243 c -0.68269,-0.0458 -0.69199,-0.2231 -1.48944,-0.40768 l -0.97092,-0.35639 c -0.76988,-0.28596 -0.85141,-0.84431 -1.36521,-1.53245 z"
         fill="#99a9b4"
         id="path125"
         sodipodi:nodetypes="cccccc"
         style="fill:#f2f2f2;stroke:url(#linearGradient15);stroke-width:0.117;stroke-dasharray:none" />
      <path
         d="m 193.02451,146.19574 c 0.34102,1.52496 0.12842,2.22221 -0.29978,3.68646 -0.19785,-0.11059 -0.3957,-0.22118 -0.59955,-0.33513 0.29678,-1.10594 0.59356,-2.21188 0.89933,-3.35133 z"
         fill="#919790"
         id="path185"
         style="stroke:url(#linearGradient16);stroke-width:0.117;stroke-dasharray:none" />
      <path
         style="fill:#4d4d4d;fill-opacity:1;stroke:url(#linearGradient17);stroke-width:0.117;stroke-dasharray:none"
         d="m 152.3128,199.02192 0.52359,-6.40226 14.20245,-14.7069 0.19635,5.92666 z"
         id="path249"
         sodipodi:nodetypes="ccccc" />
      <path
         style="fill:#b3b3b3;fill-opacity:1;stroke:url(#linearGradient18);stroke-width:0.117;stroke-dasharray:none"
         d="m 153.15434,187.46539 0.0654,-5.70715 11.64993,-11.48748 0.0654,5.19497 z"
         id="path250" />
      <path
         style="fill:#b3b3b3;fill-opacity:1;stroke:url(#linearGradient19);stroke-width:0.117;stroke-dasharray:none"
         d="m 152.69756,203.24947 0.0982,6.40225 16.72224,-18.54825 0.0654,-5.41448 z"
         id="path251"
         sodipodi:nodetypes="ccccc" />
      <path
         style="fill:#4d4d4d;fill-opacity:1;stroke:url(#linearGradient20);stroke-width:0.117;stroke-dasharray:none"
         d="m 154.71525,218.52504 -1.11264,-5.26815 15.96958,-16.60928 0.58904,5.26814 z"
         id="path252"
         sodipodi:nodetypes="ccccc" />
      <path
         style="fill:#1a1a1a;fill-opacity:1;stroke:url(#linearGradient21);stroke-width:0.117;stroke-dasharray:none"
         d="m 128.42812,155.08901 5.46098,14.07275 3.88747,2.173 6.8992,-14.04824 7.54,-15.95983 -5.80577,-4.76807 -7.99739,-4.93801 2.32434,-0.84156 18.21048,-3.65185 -21.82966,1.61001 -2.58045,1.10691 -3.23988,-0.41718 -4.81306,1.96605 -3.6098,9.31285 z"
         id="path306"
         sodipodi:nodetypes="ccccccccccccccc" />
      <path
         style="fill:#b3b3b3;fill-opacity:1;stroke:url(#linearGradient22);stroke-width:0.117;stroke-dasharray:none"
         d="m 161.00959,224.79763 -2.94521,-5.78032 12.30443,-13.82888 v 10.02411 z"
         id="path253" />
      <path
         style="fill:#4d4d4d;fill-opacity:1;stroke:url(#linearGradient23);stroke-width:0.117;stroke-dasharray:none"
         d="m 155.13602,175.10464 1.66895,-9.62167 5.10503,-2.26823 v 4.09744 z"
         id="path254"
         sodipodi:nodetypes="ccccc" />
      <path
         style="fill:#999999;fill-opacity:1;stroke:url(#linearGradient24);stroke-width:0.117;stroke-dasharray:none"
         d="m 155.53898,163.21474 -2.55251,13.17035 2.55251,-1.60971 1.63623,-9.29241 4.74273,-2.21871 z"
         id="path255"
         sodipodi:nodetypes="cccccc" />
      <path
         style="fill:#e6e6e6;fill-opacity:1;stroke:url(#linearGradient25);stroke-width:0.117;stroke-dasharray:none"
         d="m 151.54194,189.24654 0.45814,-8.6339 13.28616,-12.65818 -0.0654,2.1219 -11.71538,11.48747 0.0654,5.63399 z"
         id="path256" />
      <path
         style="fill:#999999;fill-opacity:1;stroke:url(#linearGradient26);stroke-width:0.117;stroke-dasharray:none"
         d="m 150.82335,200.02224 0.27816,-6.93273 16.89556,-17.46049 0.37024,1.86257 -15.27223,15.21098 -0.55536,6.1051 z"
         id="path257"
         sodipodi:nodetypes="ccccccc" />
      <path
         style="fill:#e6e6e6;fill-opacity:1;stroke:url(#linearGradient27);stroke-width:0.117;stroke-dasharray:none"
         d="m 150.5526,210.8646 -0.0926,-7.86418 18.88203,-18.83265 -0.18512,2.06952 -16.19782,17.07355 v 6.10509 z"
         id="path258" />
      <path
         style="fill:#999999;fill-opacity:1;stroke:url(#linearGradient28);stroke-width:0.117;stroke-dasharray:none"
         d="m 154.7747,218.56976 -3.76219,-4.16307 17.77132,-18.72917 1.1107,0.82781 -16.10526,16.55617 z"
         id="path259"
         sodipodi:nodetypes="cccccc" />
      <path
         style="fill:#e6e6e6;fill-opacity:1;stroke:url(#linearGradient29);stroke-width:0.117;stroke-dasharray:none"
         d="m 160.48097,225.17822 -5.00975,-4.97979 15.08711,-16.03879 0.0926,1.96604 -12.49546,12.83104 3.0313,5.70412 z"
         id="path260"
         sodipodi:nodetypes="ccccccc" />
      <path
         style="fill:#333333;fill-opacity:1;stroke:url(#linearGradient30);stroke-width:0.117;stroke-dasharray:none"
         d="m 161.89975,163.22482 -0.0347,4.22959 3.30898,-4.19079 z"
         id="path261"
         sodipodi:nodetypes="cccc" />
      <path
         style="fill:#666666;fill-opacity:1;stroke:url(#linearGradient31);stroke-width:0.117;stroke-dasharray:none"
         d="m 165.36311,167.86019 1.5464,6.08734 -2.45281,1.86257 -0.0694,-7.06224 z"
         id="path262"
         sodipodi:nodetypes="ccccc" />
      <path
         style="fill:#333333;fill-opacity:1;stroke:url(#linearGradient32);stroke-width:0.117;stroke-dasharray:none"
         d="m 168.38812,177.35336 -1.37829,1.45671 0.20049,5.07117 1.82804,-2.32822 z"
         id="path263"
         sodipodi:nodetypes="ccccc" />
      <path
         style="fill:#333333;fill-opacity:1;stroke:url(#linearGradient33);stroke-width:0.117;stroke-dasharray:none"
         d="m 168.78816,195.63586 2.11702,-1.43445 0.78675,5.19968 -1.59664,2.71625 -0.54562,-5.24652 z"
         id="path265"
         sodipodi:nodetypes="cccccc" />
      <path
         style="fill:#666666;fill-opacity:1;stroke:url(#linearGradient34);stroke-width:0.117;stroke-dasharray:none"
         d="m 170.20794,204.45231 -0.13254,10.99434 2.58535,-2.43169 -0.25453,-8.45917 -1.41153,-0.80194 z"
         id="path266"
         sodipodi:nodetypes="cccccc" />
      <path
         style="fill:#cccccc;fill-opacity:1;stroke:url(#linearGradient35);stroke-width:0.117;stroke-dasharray:none"
         d="m 183.59326,165.48836 7.63611,-19.60872 1.06443,-11.89975 3.88748,9.41632 -9.81125,24.00646 z"
         id="path267"
         sodipodi:nodetypes="cccccc" />
      <path
         style="fill:#cccccc;fill-opacity:1;stroke:url(#linearGradient36);stroke-width:0.117;stroke-dasharray:none"
         d="m 141.76818,133.57892 1.46937,-1.87551 5.83122,0.72434 6.45598,1.34519 -9.1402,2.79385 z"
         id="path268"
         sodipodi:nodetypes="cccccc" />
      <path
         style="fill:#e6e6e6;fill-opacity:1;stroke:url(#linearGradient37);stroke-width:0.117;stroke-dasharray:none"
         d="m 163.89751,142.05048 -5.18931,-0.39171 -4.35236,1.31703 -3.95967,6.91444 0.68722,2.19506 2.32344,-2.19506 0.19635,-2.26823 2.58524,-2.81699 7.55937,-0.6951 z"
         id="path270"
         sodipodi:nodetypes="cccccccccc" />
      <path
         style="fill:#666666;fill-opacity:1;stroke:url(#linearGradient38);stroke-width:0.117;stroke-dasharray:none"
         d="m 163.83616,142.02101 4.54871,8.01197 -2.65068,6.65834 -3.27246,0.54877 -8.05023,-0.80486 0.35997,-2.78041 6.64308,0.84145 2.51979,-2.01214 1.30898,-2.74383 0.26179,-3.32917 -0.52359,-1.68288 -3.07611,-0.43901 0.19669,-0.24943 1.63589,-0.22617 z"
         id="path271"
         sodipodi:nodetypes="ccccccccccccccc" />
      <path
         style="fill:#b3b3b3;fill-opacity:1;stroke:url(#linearGradient39);stroke-width:0.117;stroke-dasharray:none"
         d="m 165.12564,144.75165 -1.40942,-0.98556 -7.62255,0.94898 -2.71614,2.81699 -0.29452,2.45115 1.01446,6.98761 1.14536,0.4756 7.62482,-0.29268 -7.91934,-0.6951 -0.22907,-1.13412 0.71994,-0.87802 5.95586,0.0732 2.42162,-1.75605 1.50533,-2.5609 0.29452,-3.0365 0.0327,-1.24387 z"
         id="path273"
         sodipodi:nodetypes="ccccccccccccccccc" />
      <path
         style="fill:#f2f2f2;fill-opacity:1;stroke:url(#linearGradient40);stroke-width:0.117;stroke-dasharray:none"
         d="m 137.68401,166.88529 -2.12885,-0.41391 -9.44102,-24.2134 5.6461,-10.24414 17.67876,10.45109 z"
         id="path280"
         sodipodi:nodetypes="cccccc" />
      <path
         style="fill:#f9f9f9;fill-opacity:1;stroke:url(#linearGradient41);stroke-width:0.117;stroke-dasharray:none"
         d="m 183.68582,165.5401 -12.68058,-24.00646 20.48922,-9.84278 3.57611,9.01498 -9.62613,25.24816 z"
         id="path281"
         sodipodi:nodetypes="cccccc" />
      <path
         style="fill:#666666;fill-opacity:1;stroke:url(#linearGradient42);stroke-width:0.117;stroke-dasharray:none"
         d="m 169.32162,184.17421 0.97777,-0.0819 0.85481,2.48917 -0.32561,3.11934 -1.38004,1.46697 -0.25782,-5.20636 z"
         id="path282"
         sodipodi:nodetypes="ccccccc" />
      <path
         style="fill:#333333;fill-opacity:1;stroke:url(#linearGradient43);stroke-width:0.117;stroke-dasharray:none"
         d="m 151.08192,152.03647 3.00817,4.94098 -0.9603,-6.9329 z"
         id="path286" />
      <path
         style="fill:#cccccc;fill-opacity:1;stroke:url(#linearGradient44);stroke-width:0.117;stroke-dasharray:none"
         d="m 137.63773,166.88529 -2.03629,-0.31043 13.79128,-24.16167 z"
         id="path288" />
      <path
         style="fill:#ffffff;fill-opacity:1;stroke:url(#linearGradient45);stroke-width:0.117;stroke-dasharray:none"
         d="m 171.00524,141.43017 3.33212,6.51899 2.86933,-5.32902 -1.01815,-3.62166 z"
         id="path294" />
      <path
         style="fill:#1a1a1a;fill-opacity:1;stroke:url(#linearGradient46);stroke-width:0.117;stroke-dasharray:none"
         d="m 153.01409,176.24987 0.0347,0.90542 12.35662,-13.12853 -0.18512,-0.76314 -9.81124,11.73161 z"
         id="path298"
         sodipodi:nodetypes="cccccc" />
      <path
         style="fill:#333333;fill-opacity:1;stroke:url(#linearGradient47);stroke-width:0.117;stroke-dasharray:none"
         d="m 151.53315,189.21026 0.54378,-0.15522 14.85571,-15.13338 -2.45281,1.81083 z"
         id="path299"
         sodipodi:nodetypes="ccccc" />
      <path
         style="fill:#1a1a1a;fill-opacity:1;stroke:url(#linearGradient48);stroke-width:0.117;stroke-dasharray:none"
         d="m 150.79267,200.06231 1.67764,-1.25464 14.64745,-14.90057 1.89746,-2.35407 -0.41651,1.21584 -15.71189,16.06466 z"
         id="path300"
         sodipodi:nodetypes="ccccccc" />
      <path
         style="fill:#333333;fill-opacity:1;stroke:url(#linearGradient49);stroke-width:0.117;stroke-dasharray:none"
         d="m 150.52657,210.86263 2.40653,-1.5004 17.88702,-19.68633 -0.46279,1.16411 -17.37795,18.91025 z"
         id="path301"
         sodipodi:nodetypes="cccccc" />
      <path
         style="fill:#1a1a1a;fill-opacity:1;stroke:url(#linearGradient50);stroke-width:0.117;stroke-dasharray:none"
         d="m 154.70329,218.59747 0.32396,-0.0259 15.26066,-16.43977 1.43466,-2.74212 -1.71234,2.63864 z"
         id="path302"
         sodipodi:nodetypes="cccccc" />
      <path
         style="fill:#333333;fill-opacity:1;stroke:url(#linearGradient51);stroke-width:0.117;stroke-dasharray:none"
         d="m 160.43038,225.19407 1.96688,-0.36217 10.27404,-11.79627 -2.70735,2.19887 -8.81624,9.39045 z"
         id="path303" />
      <path
         style="fill:#333333;fill-opacity:1;stroke:url(#linearGradient52);stroke-width:0.117;stroke-dasharray:none"
         d="m 153.74474,159.67753 0.22907,1.68288 12.59895,-1.02436 0.75267,-1.02436 z"
         id="path308" />
      <path
         style="fill:#1a1a1a;fill-opacity:1;stroke:url(#linearGradient53);stroke-width:0.117;stroke-dasharray:none"
         d="m 147.31015,137.3946 5.83121,-1.75909 5.55354,-1.24172 4.07259,0.62086 4.81307,1.44867 1.48094,0.93128 3.79492,-1.86257 -11.10708,-2.27647 h -5.55353 l -5.27587,1.75909 -5.46097,1.65562 z"
         id="path310" />
    </g>
  </g>
</svg>
